<?xml version="1.0" standalone="no"?>
<!DOCTYPE svg PUBLIC "-//W3C//DTD SVG 20010904//EN"
 "http://www.w3.org/TR/2001/REC-SVG-20010904/DTD/svg10.dtd">
<svg version="1.0" xmlns="http://www.w3.org/2000/svg"
 width="1024.000000pt" height="1024.000000pt" viewBox="0 0 1024.000000 1024.000000"
 preserveAspectRatio="xMidYMid meet">
<metadata>
Created by potrace 1.14, written by Peter Selinger 2001-2017
</metadata>
<g transform="translate(0.000000,1024.000000) scale(0.100000,-0.100000)"
fill="#000000" stroke="none">
<path d="M5030 8473 c-139 -11 -285 -56 -400 -123 -81 -47 -190 -144 -190
-169 0 -10 18 -26 46 -39 108 -53 244 -193 244 -251 0 -25 -26 -7 -87 59 -85
92 -196 160 -321 196 -9 3 -10 9 -3 23 9 16 6 19 -29 25 -80 13 -245 -26 -334
-78 -55 -32 -109 -76 -140 -113 l-26 -31 57 -17 c112 -33 243 -116 243 -155 0
-16 -19 -9 -124 45 -97 49 -142 66 -201 76 -73 11 -76 13 -71 35 6 24 6 24
-78 24 -111 0 -208 -21 -325 -71 -126 -54 -210 -104 -307 -182 -199 -161 -323
-392 -324 -600 0 -68 -1 -69 -56 -140 -64 -82 -103 -154 -136 -253 -19 -57
-23 -89 -23 -189 1 -129 17 -191 70 -269 l24 -35 -36 -53 c-111 -165 -163
-335 -163 -530 0 -177 34 -284 139 -443 l46 -70 -18 -85 c-30 -141 -10 -315
50 -434 64 -127 178 -250 278 -298 42 -21 43 -22 49 -85 9 -91 49 -207 97
-287 l42 -70 -36 -70 c-29 -57 -34 -74 -25 -90 6 -11 75 -86 154 -166 l144
-147 5 -144 c3 -79 7 -219 10 -311 2 -92 7 -183 11 -202 3 -20 2 -36 -2 -36
-5 0 -9 -26 -10 -58 0 -31 -4 -101 -8 -155 -8 -96 -8 -98 -27 -81 -16 14 -23
15 -45 5 -29 -13 -29 -19 -9 -186 5 -37 4 -46 -4 -35 -7 10 -11 11 -11 3 0 -9
-20 -13 -64 -13 -53 0 -69 4 -90 23 -32 28 -66 131 -66 200 0 64 -16 85 -51
67 -21 -12 -22 -16 -17 -126 3 -63 4 -114 2 -114 -2 0 -10 12 -17 27 -11 19
-23 27 -43 27 -16 1 -30 6 -32 11 -2 6 -9 17 -16 25 -7 8 -20 42 -29 76 -31
111 -18 486 23 703 5 30 10 55 10 57 0 2 -12 -8 -26 -21 -15 -14 -30 -25 -34
-25 -4 0 -10 -9 -13 -20 -3 -11 -11 -19 -17 -18 -7 2 -14 -10 -17 -27 -2 -16
-12 -37 -22 -45 -13 -12 -17 -25 -13 -49 3 -24 1 -32 -7 -27 -6 4 -11 1 -11
-6 0 -7 -16 -24 -36 -37 -93 -63 -173 -200 -194 -330 -14 -85 -8 -159 19 -236
17 -48 17 -56 4 -67 -13 -10 -13 -13 2 -24 16 -12 16 -13 -1 -13 -11 0 -31 -3
-46 -7 -22 -5 -33 0 -60 26 l-32 32 -18 -22 c-14 -17 -18 -19 -18 -6 0 9 -7
16 -16 16 -18 0 -13 -21 24 -95 37 -75 79 -133 146 -203 96 -101 191 -161 376
-240 18 -8 -50 -11 -263 -11 -327 -1 -347 -5 -373 -66 -12 -30 -13 -44 -4 -71
24 -71 3 -68 605 -75 579 -7 580 -7 571 -16 -12 -12 78 -56 309 -150 179 -73
500 -168 720 -212 408 -82 885 -93 1328 -30 405 57 744 156 1195 349 l141 60
496 0 c346 0 503 3 518 11 37 19 57 52 57 95 0 32 -6 46 -31 70 l-30 29 -297
5 -297 5 88 42 c130 63 234 133 309 210 71 72 142 179 133 201 -2 7 -1 11 4 7
11 -6 47 82 37 92 -3 3 -6 -1 -6 -10 0 -10 -6 -14 -14 -11 -8 3 -17 1 -21 -5
-3 -6 1 -11 10 -11 13 0 13 -2 3 -14 -10 -10 -15 -10 -23 -2 -30 35 -45 39
-63 19 -19 -22 -72 -39 -72 -23 0 5 -9 10 -20 10 -11 0 -20 -6 -20 -14 0 -8
-5 -18 -11 -21 -20 -13 -20 3 0 38 11 20 30 68 42 108 18 61 21 87 16 173 -8
157 -59 270 -162 365 -25 23 -45 44 -45 47 0 3 -10 14 -22 25 -13 10 -17 18
-10 19 21 0 13 35 -10 45 -16 7 -22 18 -20 35 1 16 -1 20 -6 12 -9 -14 -40 14
-61 56 -6 12 -19 22 -28 22 -13 0 -14 -7 -9 -38 19 -113 31 -300 31 -472 0
-179 -2 -201 -24 -263 -13 -38 -30 -71 -38 -74 -8 -3 -12 -11 -10 -18 3 -6 -1
-12 -9 -12 -7 0 -11 4 -8 9 8 13 -23 20 -43 10 -17 -9 -18 -5 -15 75 5 114 -1
135 -36 131 -25 -3 -27 -7 -34 -68 -10 -92 -25 -147 -51 -184 -24 -34 -27 -35
-104 -43 -40 -4 -53 -3 -53 8 0 8 -6 6 -16 -7 -15 -18 -15 -18 -10 6 3 14 11
64 17 112 12 81 12 89 -6 108 -27 29 -57 22 -77 -20 -15 -30 -18 -32 -19 -12
-2 39 -4 43 -18 51 -10 7 -12 23 -7 67 3 33 9 169 12 304 3 135 10 252 15 262
5 9 8 89 7 178 l-1 162 117 121 c138 144 137 143 166 195 l23 40 -32 56 -32
56 35 57 c46 75 91 199 105 293 7 41 13 74 14 75 1 0 35 22 74 49 228 152 337
418 289 706 l-16 95 31 40 c40 53 105 188 124 261 26 93 30 253 11 359 -20
107 -72 240 -132 343 -24 40 -44 78 -44 84 0 6 16 42 35 82 70 144 66 314 -12
501 -29 68 -99 181 -131 209 -18 16 -22 30 -22 86 0 134 -68 320 -164 447 -96
126 -252 250 -406 321 -152 71 -205 84 -344 89 l-128 5 11 -21 c14 -25 16 -23
-82 -46 -83 -18 -193 -64 -254 -106 -43 -28 -73 -32 -73 -10 0 20 74 82 133
111 33 16 86 35 118 42 33 7 59 16 59 22 0 19 -99 104 -163 140 -93 52 -184
76 -289 76 -81 0 -105 -8 -77 -26 15 -9 1 -19 -46 -34 -111 -35 -224 -113
-290 -198 -21 -29 -47 -52 -57 -52 -24 0 -23 6 11 66 39 67 133 152 209 189
34 17 62 35 62 42 0 6 -33 41 -72 77 -110 101 -281 182 -432 205 -79 13 -179
18 -236 14z m-1440 -759 c30 -9 84 -30 119 -47 105 -52 261 -211 261 -267 0
-12 4 -19 8 -16 5 3 9 -2 9 -10 0 -13 -2 -13 -15 0 -14 14 -24 11 -94 -26 -43
-22 -78 -46 -78 -54 0 -8 -6 -11 -15 -8 -13 5 -12 1 2 -25 10 -17 22 -31 27
-31 4 0 38 14 75 32 36 17 93 40 126 49 33 10 98 30 145 44 100 31 272 44 362
27 155 -30 294 -110 436 -254 65 -66 116 -110 133 -113 39 -9 77 15 121 73 83
109 250 229 373 268 146 46 339 41 490 -12 103 -37 104 -37 134 22 71 135 189
253 314 313 117 57 158 65 300 58 175 -7 279 -48 408 -159 72 -61 159 -180
193 -262 53 -128 72 -318 40 -410 -7 -22 -10 -44 -7 -50 4 -6 0 -5 -9 2 -19
15 -33 2 -43 -41 -4 -15 -20 -37 -36 -48 -16 -11 -27 -24 -24 -29 3 -5 -3 -11
-14 -15 -11 -3 -26 -16 -34 -29 -9 -13 -30 -26 -47 -29 -17 -4 -29 -11 -25
-17 4 -6 -6 -10 -25 -10 l-31 0 2 55 c1 30 -1 58 -5 62 -9 9 -27 -18 -20 -29
3 -4 -1 -8 -8 -8 -7 0 -33 -21 -58 -46 -25 -26 -69 -62 -97 -81 -29 -18 -53
-39 -53 -46 0 -7 7 -37 15 -67 49 -180 87 -370 103 -519 9 -88 9 -269 -1 -304
-5 -19 -4 -27 3 -22 5 3 10 -1 10 -10 0 -9 -4 -13 -10 -10 -5 3 -10 -3 -10
-15 0 -13 4 -18 11 -15 6 4 5 -2 -2 -13 -7 -12 -17 -18 -23 -15 -5 4 -7 -1 -2
-12 11 -29 -3 -57 -25 -50 -17 6 -18 4 -9 -20 13 -33 13 -48 0 -40 -5 3 -10
-3 -10 -13 0 -22 -22 -34 -45 -26 -8 4 -15 1 -15 -7 0 -7 3 -10 6 -6 4 3 13 0
20 -8 17 -16 18 -29 3 -19 -8 4 -9 -1 -5 -17 l7 -24 -14 24 -14 23 -6 -23 c-4
-13 -7 -33 -7 -43 0 -26 -40 -85 -62 -92 -10 -3 -18 -14 -18 -24 0 -9 -9 -20
-20 -23 -14 -3 -20 -14 -20 -32 0 -23 -3 -25 -22 -19 -19 6 -21 5 -11 -8 10
-11 7 -17 -16 -31 -16 -9 -32 -28 -35 -42 -4 -14 -11 -23 -17 -19 -12 7 -61
-35 -54 -47 3 -4 1 -10 -4 -13 -5 -4 -13 -1 -17 5 -5 8 -3 9 6 4 8 -5 11 -4 6
3 -8 14 -36 4 -36 -13 0 -16 -26 -39 -77 -65 -24 -12 -43 -24 -43 -27 0 -2 5
-1 12 3 7 5 8 3 3 -5 -4 -7 -16 -11 -26 -8 -21 6 -27 -9 -6 -16 23 -8 -2 -19
-44 -19 -33 1 -46 -4 -61 -24 -11 -13 -30 -24 -44 -24 -13 0 -24 -6 -24 -13 0
-12 -15 -15 -72 -18 -11 0 -15 -7 -13 -19 3 -14 -1 -17 -12 -13 -10 4 -14 2
-10 -4 3 -5 0 -10 -8 -10 -8 0 -15 5 -15 11 0 6 -7 3 -15 -8 -9 -12 -22 -17
-39 -14 -14 3 -23 1 -20 -3 5 -8 -11 -13 -19 -6 -2 1 -11 -4 -20 -12 -9 -7
-23 -11 -32 -8 -8 4 -19 -1 -24 -11 -5 -9 -12 -14 -16 -10 -3 3 12 42 34 85
47 94 67 162 79 261 7 63 6 74 -8 82 -27 14 -41 -4 -50 -66 -24 -169 -77 -278
-186 -388 -106 -105 -246 -172 -454 -216 -86 -18 -342 -24 -462 -11 -145 16
-245 43 -358 99 -52 25 -100 46 -107 45 -7 0 -11 2 -10 6 1 3 -20 26 -47 51
-61 56 -126 148 -160 223 -26 58 -56 184 -56 232 0 20 -5 25 -25 25 -17 0 -26
-7 -30 -23 -11 -43 31 -208 80 -315 26 -57 44 -106 41 -109 -3 -4 -6 -1 -6 6
0 8 -8 10 -22 6 -19 -6 -21 -5 -10 6 19 20 14 33 -5 13 -11 -11 -18 -13 -21
-5 -2 6 -15 11 -28 11 -13 0 -33 9 -44 20 -11 11 -27 20 -35 20 -9 0 -18 7
-22 16 -4 12 -14 14 -42 9 -23 -4 -31 -2 -22 3 19 14 -4 25 -35 18 -14 -4 -24
-2 -24 4 0 5 5 10 10 10 6 0 10 5 10 10 0 15 -17 12 -35 -6 -15 -15 -17 -15
-21 2 -7 25 -49 45 -63 31 -11 -11 -12 -9 -15 14 0 5 -14 18 -31 27 -43 25
-57 40 -49 53 4 7 3 9 -4 5 -6 -3 -13 -2 -17 4 -3 5 -15 10 -26 10 -10 0 -19
6 -19 14 0 21 -28 46 -45 40 -8 -4 -18 1 -21 10 -3 9 -13 16 -21 16 -8 0 -11
5 -8 11 4 6 -2 13 -14 16 -12 3 -21 13 -22 22 -1 9 -4 5 -9 -9 -7 -23 -10 -20
-14 12 -2 16 -26 22 -27 6 0 -7 -6 5 -14 27 -7 22 -13 31 -14 21 -1 -19 -1
-19 -19 0 -17 17 -17 20 -3 32 14 11 11 12 -16 7 -27 -5 -31 -4 -26 13 2 10
-3 26 -11 35 -9 8 -13 23 -10 31 3 9 1 16 -5 16 -6 0 -11 7 -11 16 0 11 -6 14
-20 9 -14 -5 -20 -2 -20 9 0 9 -8 16 -17 17 -11 0 -13 3 -5 6 6 2 12 17 11 31
l-1 27 -8 -25 c-7 -22 -8 -20 -10 15 -1 22 -2 45 -1 50 1 6 -7 -1 -17 -14 -15
-18 -23 -21 -37 -14 -12 7 -14 13 -6 17 6 4 11 2 11 -4 0 -6 5 -8 10 -5 8 5 8
11 1 19 -6 7 -8 24 -5 39 3 22 -1 30 -21 39 -14 6 -25 15 -25 20 0 13 18 9 23
-4 2 -8 8 -9 13 -4 5 5 4 11 -4 13 -6 3 -9 9 -6 15 4 6 -1 8 -12 4 -11 -3 -26
-1 -34 5 -12 8 -10 9 8 4 12 -3 22 -2 22 3 0 5 -10 14 -22 21 -13 6 -15 9 -6
7 9 -3 22 2 29 10 7 8 8 14 3 13 -19 -3 -29 2 -17 9 8 5 3 11 -13 19 -23 10
-24 10 -18 -15 4 -20 3 -23 -5 -12 -5 8 -11 57 -13 108 -3 80 -1 92 12 87 12
-5 13 -4 3 6 -7 7 -13 37 -13 66 0 127 75 591 114 700 l15 42 -45 26 c-25 15
-72 53 -105 86 -33 33 -64 57 -69 54 -6 -3 -7 1 -4 9 3 9 3 16 0 16 -13 0 -24
-45 -14 -57 7 -9 7 -13 -1 -13 -6 0 -11 -7 -11 -16 0 -8 5 -12 10 -9 6 3 10 1
10 -5 0 -7 -8 -9 -19 -5 -14 4 -21 0 -26 -15 -6 -20 -8 -20 -43 9 -105 84
-202 197 -202 236 0 9 -4 24 -9 34 -5 9 -12 68 -14 130 -4 92 -2 126 15 184
72 262 286 459 551 507 72 13 221 5 287 -16z m3886 -1333 c84 -56 130 -108
139 -155 6 -38 6 -39 -12 -25 -10 8 -34 29 -53 47 -19 18 -65 56 -102 84 -58
43 -66 53 -57 69 13 26 18 25 85 -20z m-4673 15 c4 -10 -12 -28 -46 -52 -29
-21 -78 -62 -109 -92 l-58 -55 0 39 c0 33 7 46 38 76 45 44 130 98 153 98 9 0
19 -6 22 -14z m4493 -702 c113 -64 211 -172 266 -293 28 -60 34 -117 13 -116
-5 1 -31 43 -56 93 -53 108 -119 181 -227 252 -39 27 -77 50 -83 52 -7 2 -9
13 -5 26 9 27 27 24 92 -14z m-4306 7 c0 -13 -20 -32 -62 -57 -101 -60 -191
-160 -244 -270 -38 -77 -49 -92 -60 -83 -22 18 -17 41 25 125 63 126 149 216
263 276 63 33 78 35 78 9z m4051 -244 c-10 -9 -11 -8 -5 6 3 10 9 15 12 12 3
-3 0 -11 -7 -18z m-3813 -27 c6 0 12 -4 12 -10 0 -14 -37 -13 -46 1 -4 8 -9 7
-15 -2 -7 -11 -9 -10 -9 5 0 14 5 17 23 12 12 -3 28 -6 35 -6z m-16 -42 c-7
-7 -12 -21 -12 -32 0 -10 -3 -17 -6 -13 -10 10 5 57 18 57 9 0 9 -3 0 -12z
m3783 -8 c3 -5 1 -10 -4 -10 -6 0 -11 5 -11 10 0 6 2 10 4 10 3 0 8 -4 11 -10z
m-925 -361 c0 -11 -4 -17 -10 -14 -5 3 -10 13 -10 21 0 8 5 14 10 14 6 0 10
-9 10 -21z m-2519 -76 c-12 -20 -14 -14 -5 12 4 9 9 14 11 11 3 -2 0 -13 -6
-23z m79 -33 c0 -11 -4 -20 -10 -20 -5 0 -10 9 -10 20 0 11 5 20 10 20 6 0 10
-9 10 -20z m27 -22 c-3 -8 -6 -5 -6 6 -1 11 2 17 5 13 3 -3 4 -12 1 -19z
m-467 -37 c0 -7 -20 -31 -44 -53 -69 -60 -131 -149 -161 -232 -25 -69 -45 -91
-59 -67 -9 14 29 135 57 183 57 98 182 222 198 196 5 -7 9 -19 9 -27z m3930
-38 c55 -56 87 -100 114 -154 42 -85 57 -156 35 -169 -17 -11 -29 -3 -29 19 0
9 -18 55 -40 101 -32 65 -58 101 -118 161 -67 66 -76 80 -68 98 5 12 14 21 20
21 6 0 45 -35 86 -77z m-3410 47 c0 -5 -4 -10 -10 -10 -5 0 -10 5 -10 10 0 6
5 10 10 10 6 0 10 -4 10 -10z m160 -120 c0 -5 -2 -10 -4 -10 -3 0 -8 5 -11 10
-3 6 -1 10 4 10 6 0 11 -4 11 -10z m150 -50 c-8 -5 -19 -10 -25 -10 -5 0 -3 5
5 10 8 5 20 10 25 10 6 0 3 -5 -5 -10z m-355 -331 c4 -5 -9 -40 -28 -77 -32
-60 -53 -122 -71 -204 -4 -16 -13 -28 -21 -28 -23 0 -19 94 8 170 40 112 90
175 112 139z m2935 -36 c46 -71 70 -146 70 -213 0 -86 -23 -81 -45 11 -10 38
-35 106 -56 150 -22 45 -37 85 -33 90 12 20 36 6 64 -38z m-43 -377 c76 -35
163 -122 198 -198 14 -30 29 -85 34 -123 6 -41 11 -355 11 -740 1 -724 1 -726
-53 -818 -14 -23 -34 -51 -46 -61 -12 -11 -21 -23 -21 -28 0 -4 131 -8 290 -8
l290 0 0 -32 c0 -89 -44 -157 -125 -194 l-50 -24 -1983 0 c-2190 0 -2019 -5
-2090 63 -47 45 -62 78 -62 137 l0 50 290 0 c262 0 323 5 275 24 -23 8 -74 95
-92 156 -15 49 -17 128 -14 765 1 413 7 729 12 755 15 65 66 154 115 199 50
47 129 89 188 101 22 4 655 7 1406 6 l1365 -1 62 -29z m903 -840 c0 -3 -4 -8
-10 -11 -5 -3 -10 -1 -10 4 0 6 5 11 10 11 6 0 10 -2 10 -4z m-550 -440 c0 -2
-7 -7 -16 -10 -8 -3 -12 -2 -9 4 6 10 25 14 25 6z m-4475 -406 c-3 -5 -12 -10
-18 -10 -7 0 -6 4 3 10 19 12 23 12 15 0z m2 -46 c-3 -3 -12 -4 -19 -1 -8 3
-5 6 6 6 11 1 17 -2 13 -5z m5291 -59 c-3 -3 -9 2 -12 12 -6 14 -5 15 5 6 7
-7 10 -15 7 -18z"/>
<path d="M6338 7273 c12 -2 22 -8 22 -13 0 -14 33 -21 41 -8 13 20 0 28 -44
27 -23 -1 -32 -4 -19 -6z"/>
<path d="M3445 7186 c-51 -22 -97 -68 -121 -121 -39 -83 -28 -163 33 -243 l26
-34 20 33 c33 54 95 128 175 210 84 86 84 94 15 142 -44 30 -98 35 -148 13z"/>
<path d="M6636 7190 c-15 -5 -37 -17 -48 -27 -44 -40 -42 -45 55 -144 86 -88
167 -194 167 -218 0 -49 78 78 86 142 10 71 -11 132 -65 188 -60 61 -122 80
-195 59z"/>
<path d="M4248 6774 c-54 -29 -76 -118 -42 -170 34 -51 125 -71 172 -38 47 33
66 112 38 162 -30 56 -111 78 -168 46z"/>
<path d="M5839 6775 c-45 -25 -63 -65 -60 -133 1 -13 16 -39 35 -58 28 -28 42
-34 75 -34 81 0 131 49 131 126 0 29 -8 44 -39 75 -32 32 -45 39 -77 39 -22
-1 -51 -7 -65 -15z"/>
<path d="M5890 6281 c-141 -43 -218 -190 -176 -335 53 -183 304 -236 424 -91
34 42 62 120 62 174 0 158 -169 295 -310 252z m131 -90 c17 -18 29 -40 29 -56
0 -16 -12 -38 -29 -56 -59 -58 -151 -24 -151 56 0 80 92 114 151 56z"/>
<path d="M4171 6266 c-53 -19 -111 -74 -137 -130 -99 -212 120 -442 324 -340
125 62 177 212 117 339 -28 58 -79 109 -131 131 -40 17 -127 17 -173 0z m175
-70 c61 -52 21 -146 -62 -146 -35 0 -47 5 -68 31 -34 40 -33 74 3 110 38 37
88 39 127 5z"/>
<path d="M4935 5713 c-11 -2 -30 -6 -43 -9 -35 -7 -109 -81 -123 -121 -34
-104 54 -232 194 -281 l49 -17 -4 -58 c-3 -36 -12 -67 -24 -84 -68 -91 -184
-96 -235 -9 -62 105 -182 26 -125 -82 19 -35 72 -85 116 -108 26 -14 56 -19
120 -19 99 0 151 21 212 87 l37 40 37 -42 c60 -66 104 -85 204 -85 92 0 129
13 183 64 31 28 67 91 67 115 0 47 -51 93 -90 81 -9 -3 -32 -24 -50 -46 -59
-74 -136 -86 -200 -32 -42 35 -60 73 -60 126 l0 44 75 37 c109 54 165 128 165
219 0 79 -63 153 -149 177 -34 9 -314 12 -356 3z m159 -39 c19 -18 19 -20 6
-44 -11 -20 -77 -35 -110 -25 -34 11 -44 41 -20 65 25 25 101 28 124 4z m120
10 c9 -3 16 -17 16 -30 0 -30 -43 -54 -68 -37 -49 30 -4 88 52 67z"/>
<path d="M3160 5615 c0 -8 2 -15 4 -15 2 0 6 7 10 15 3 8 1 15 -4 15 -6 0 -10
-7 -10 -15z"/>
<path d="M6993 5555 c-3 -9 -3 -18 -1 -21 3 -3 8 4 11 16 6 23 -1 27 -10 5z"/>
<path d="M3331 5264 c0 -11 3 -14 6 -6 3 7 2 16 -1 19 -3 4 -6 -2 -5 -13z"/>
<path d="M4985 3170 c-175 -68 -251 -271 -165 -440 25 -48 101 -117 158 -143
71 -32 180 -30 253 4 69 33 127 89 160 155 32 66 33 186 2 255 -52 116 -165
189 -288 188 -44 0 -89 -7 -120 -19z"/>
<path d="M2200 2290 c0 -5 5 -10 11 -10 5 0 7 5 4 10 -3 6 -8 10 -11 10 -2 0
-4 -4 -4 -10z"/>
<path d="M7906 2265 c4 -8 11 -15 16 -15 6 0 5 6 -2 15 -7 8 -14 15 -16 15 -2
0 -1 -7 2 -15z"/>
<path d="M7826 2245 c-3 -8 -1 -15 4 -15 6 0 10 7 10 15 0 8 -2 15 -4 15 -2 0
-6 -7 -10 -15z"/>
</g>
</svg>
